<svg version="1.1" id="Layer_1" xmlns="http://www.w3.org/2000/svg" xmlns:xlink="http://www.w3.org/1999/xlink" x="0px" y="0px"
	 width="100%" viewBox="0 0 120 120" enable-background="new 0 0 120 120" xml:space="preserve">
<path fill="#FBFDFD" opacity="1.000000" stroke="none" 
	d="
M66.000000,121.000000 
	C44.000000,121.000000 22.500000,121.000000 1.000000,121.000000 
	C1.000000,81.000000 1.000000,41.000000 1.000000,1.000000 
	C41.000000,1.000000 81.000000,1.000000 121.000000,1.000000 
	C121.000000,41.000000 121.000000,81.000000 121.000000,121.000000 
	C102.833336,121.000000 84.666664,121.000000 66.000000,121.000000 
M57.593307,6.554947 
	C27.285015,9.256661 6.236564,31.835226 6.625029,61.913280 
	C6.911672,84.107506 17.501329,100.602211 37.351894,110.076187 
	C57.536369,119.709534 77.411873,117.537941 95.054359,103.591080 
	C112.277710,89.975571 118.422226,71.477814 114.469635,50.158142 
	C109.513123,23.423513 85.062515,4.934796 57.593307,6.554947 
z"/>
<path fill="#046BAB" opacity="1.000000" stroke="none" 
	d="
M58.078556,6.552173 
	C85.062515,4.934796 109.513123,23.423513 114.469635,50.158142 
	C118.422226,71.477814 112.277710,89.975571 95.054359,103.591080 
	C77.411873,117.537941 57.536369,119.709534 37.351894,110.076187 
	C17.501329,100.602211 6.911672,84.107506 6.625029,61.913280 
	C6.236564,31.835226 27.285015,9.256661 58.078556,6.552173 
M35.953556,26.724600 
	C39.183701,26.875864 39.406212,29.035639 39.432941,31.596172 
	C39.526714,40.581051 39.577358,49.572578 39.992996,58.545433 
	C40.218330,63.410027 42.071949,68.559021 46.919842,69.750702 
	C53.334850,71.327606 53.195568,75.228401 52.837372,80.008850 
	C52.688457,81.996178 52.844414,84.004570 52.806293,86.002335 
	C52.719105,90.571625 54.326797,95.960938 46.828362,97.446480 
	C53.944344,98.180870 60.474812,98.232628 67.004189,98.170158 
	C80.841667,98.037773 90.037392,88.861153 91.312103,73.079391 
	C92.456741,58.908100 86.618164,48.380405 72.712234,46.455662 
	C71.930405,46.347450 71.185730,45.970783 70.021866,45.586296 
	C71.557640,38.692455 66.670670,30.488522 76.297623,24.999901 
	C70.820717,24.999901 66.500145,24.999901 60.879036,24.999901 
	C71.129120,30.833731 65.597832,39.020401 67.286263,46.538155 
	C59.993324,46.538155 53.643574,46.538155 47.293827,46.538155 
	C46.946911,46.966522 46.599991,47.394886 46.253075,47.823254 
	C51.972420,48.343262 53.174175,51.528503 52.856739,55.955128 
	C52.581245,59.796848 52.799427,63.673969 52.799427,67.535446 
	C52.077286,67.752274 51.355145,67.969101 50.633003,68.185928 
	C49.055981,65.150558 46.466576,62.230843 46.103996,59.056747 
	C45.239292,51.486904 45.347256,43.798309 45.218456,36.155048 
	C45.147255,31.929951 43.692558,26.969484 50.396511,25.244440 
	C45.167923,24.640163 40.463310,24.622721 35.760563,24.708178 
	C35.584618,24.711376 35.426857,25.715046 35.953556,26.724600 
z"/>
<path fill="#F0F7FA" opacity="1.000000" stroke="none" 
	d="
M35.607090,26.488544 
	C35.426857,25.715046 35.584618,24.711376 35.760563,24.708178 
	C40.463310,24.622721 45.167923,24.640163 50.396511,25.244440 
	C43.692558,26.969484 45.147255,31.929951 45.218456,36.155048 
	C45.347256,43.798309 45.239292,51.486904 46.103996,59.056747 
	C46.466576,62.230843 49.055981,65.150558 50.633003,68.185928 
	C51.355145,67.969101 52.077286,67.752274 52.799427,67.535446 
	C52.799427,63.673969 52.581245,59.796848 52.856739,55.955128 
	C53.174175,51.528503 51.972420,48.343262 46.253075,47.823254 
	C46.599991,47.394886 46.946911,46.966522 47.293827,46.538155 
	C53.643574,46.538155 59.993324,46.538155 67.286263,46.538155 
	C65.597832,39.020401 71.129120,30.833731 60.879036,24.999901 
	C66.500145,24.999901 70.820717,24.999901 76.297623,24.999901 
	C66.670670,30.488522 71.557640,38.692455 70.021866,45.586296 
	C71.185730,45.970783 71.930405,46.347450 72.712234,46.455662 
	C86.618164,48.380405 92.456741,58.908100 91.312103,73.079391 
	C90.037392,88.861153 80.841667,98.037773 67.004189,98.170158 
	C60.474812,98.232628 53.944344,98.180870 46.828362,97.446480 
	C54.326797,95.960938 52.719105,90.571625 52.806293,86.002335 
	C52.844414,84.004570 52.688457,81.996178 52.837372,80.008850 
	C53.195568,75.228401 53.334850,71.327606 46.919842,69.750702 
	C42.071949,68.559021 40.218330,63.410027 39.992996,58.545433 
	C39.577358,49.572578 39.526714,40.581051 39.432941,31.596172 
	C39.406212,29.035639 39.183701,26.875864 35.607090,26.488544 
M67.033035,65.383545 
	C64.493935,67.643845 61.954830,69.904144 59.045074,72.494400 
	C59.045074,77.878685 59.004028,83.863335 59.062935,89.847008 
	C59.091072,92.704834 59.898956,95.023262 63.242390,95.696968 
	C69.925232,97.043579 77.723671,93.789879 80.578308,87.604149 
	C84.933891,78.166023 85.507660,68.329414 81.565811,58.588291 
	C79.620087,53.779999 75.989731,50.607243 71.306396,49.902458 
	C69.910896,55.236595 68.667290,59.990124 67.033035,65.383545 
M66.983711,52.439240 
	C66.467583,45.464886 61.865238,50.423462 59.373444,49.164421 
	C59.373444,55.595577 59.373444,61.417446 59.373444,67.747253 
	C65.741959,64.465538 66.667465,59.053284 66.983711,52.439240 
z"/>
<path fill="#066CAB" opacity="1.000000" stroke="none" 
	d="
M67.228363,65.063599 
	C68.667290,59.990124 69.910896,55.236595 71.306396,49.902458 
	C75.989731,50.607243 79.620087,53.779999 81.565811,58.588291 
	C85.507660,68.329414 84.933891,78.166023 80.578308,87.604149 
	C77.723671,93.789879 69.925232,97.043579 63.242390,95.696968 
	C59.898956,95.023262 59.091072,92.704834 59.062935,89.847008 
	C59.004028,83.863335 59.045074,77.878685 59.045074,72.494400 
	C61.954830,69.904144 64.493935,67.643845 67.228363,65.063599 
z"/>
<path fill="#076CAB" opacity="1.000000" stroke="none" 
	d="
M66.987427,52.882919 
	C66.667465,59.053284 65.741959,64.465538 59.373444,67.747253 
	C59.373444,61.417446 59.373444,55.595577 59.373444,49.164421 
	C61.865238,50.423462 66.467583,45.464886 66.987427,52.882919 
z"/>
</svg>